<svg width="21" height="20" viewBox="0 0 21 20" fill="none" xmlns="http://www.w3.org/2000/svg">
<path d="M20.9991 10.0616C20.9991 4.50425 16.2984 0 10.4996 0C4.7007 0 0 4.50425 0 10.0616C0 15.0824 3.83966 19.2445 8.85887 19.9992V12.9694H6.19351V10.0608H8.85887V7.84472C8.85887 5.3226 10.4269 3.9299 12.8245 3.9299C13.9735 3.9299 15.1749 4.12611 15.1749 4.12611V6.6021H13.8518C12.548 6.6021 12.1411 7.37769 12.1411 8.1734V10.0616H15.0533L14.5877 12.9703H12.1411V20C17.1603 19.2454 21 15.0832 21 10.0616H20.9991Z" fill="#1E1D1D"/>
</svg>
