<svg width="21" height="20" viewBox="0 0 21 20" fill="none" xmlns="http://www.w3.org/2000/svg">
<path d="M10.5 0C4.70156 0 0 4.47768 0 10C0 15.5223 4.70156 20 10.5 20C16.2984 20 21 15.5223 21 10C21 4.47768 16.2984 0 10.5 0ZM15.5461 7.53795C15.5531 7.64286 15.5531 7.75223 15.5531 7.85938C15.5531 11.1362 12.9328 14.9107 8.14453 14.9107C6.66797 14.9107 5.29922 14.5022 4.14609 13.7991C4.35703 13.8214 4.55859 13.8304 4.77422 13.8304C5.99297 13.8304 7.11328 13.4375 8.00625 12.7723C6.8625 12.75 5.90156 12.0357 5.57344 11.0536C5.97422 11.1094 6.33516 11.1094 6.74766 11.0089C6.15873 10.895 5.62939 10.5904 5.24957 10.1468C4.86974 9.70331 4.66286 9.14823 4.66406 8.57589V8.54464C5.00859 8.72991 5.41406 8.84375 5.83828 8.85938C5.48166 8.63302 5.1892 8.32636 4.98682 7.96658C4.78445 7.60681 4.67841 7.20503 4.67813 6.79688C4.67813 6.33482 4.80469 5.91295 5.03203 5.54688C5.68571 6.31325 6.5014 6.94005 7.42609 7.38653C8.35078 7.83301 9.36377 8.08918 10.3992 8.13839C10.0313 6.45313 11.3531 5.08929 12.9422 5.08929C13.6922 5.08929 14.3672 5.38839 14.843 5.87054C15.4312 5.76562 15.9937 5.5558 16.4953 5.27455C16.3008 5.84821 15.893 6.33259 15.3516 6.63839C15.8766 6.58482 16.3828 6.44643 16.8516 6.25223C16.4977 6.74777 16.0547 7.1875 15.5461 7.53795Z" fill="#1E1D1D"/>
</svg>
